<svg xmlns="http://www.w3.org/2000/svg" width="67.319" height="46.805" viewBox="0 0 67.319 46.805"><g transform="translate(-2 -11.012)" style="isolation:isolate"><path d="M68.453,41.413a47.52,47.52,0,0,0-10.468-.921C60,35.421,60.421,29.307,59.2,22.266a1.113,1.113,0,0,0-.492-.742,1.129,1.129,0,0,0-.882-.149,39.78,39.78,0,0,0-10.714,4.787A34.783,34.783,0,0,0,36.434,11.245a1.128,1.128,0,0,0-1.485.1c-4.976,5.022-8.3,10.182-9.932,15.364a39.9,39.9,0,0,0-11.528-5.335,1.129,1.129,0,0,0-.882.149,1.113,1.113,0,0,0-.492.742c-1.217,7.041-.8,13.154,1.218,18.226a47.52,47.52,0,0,0-10.468.921,1.113,1.113,0,0,0-.785,1.5c4.876,12.115,14.38,14.906,22.1,14.906a37.236,37.236,0,0,0,11.477-1.888,37.228,37.228,0,0,0,11.478,1.893c7.721,0,17.227-2.792,22.1-14.906a1.115,1.115,0,0,0-.787-1.5Zm-12.955-.8a29.727,29.727,0,0,0-11.774,3.229,1.1,1.1,0,0,0-.518.289h0a19.3,19.3,0,0,0-5.822,5.131,26.378,26.378,0,0,0-.571-6.123c1.346-5.652,4.808-10.465,10.322-14.315A39.133,39.133,0,0,1,57.2,23.884C58.153,30.432,57.575,36.048,55.5,40.612ZM35.826,13.635c1.976,1.736,7.227,6.866,9.363,13.857a26.962,26.962,0,0,0-9.53,11.9A26.559,26.559,0,0,0,26.937,28.1C28.293,23.268,31.268,18.41,35.826,13.635Zm-21.7,10.242a38.751,38.751,0,0,1,10.852,5.511h0a23.852,23.852,0,0,1,9.528,13.744,26.322,26.322,0,0,0-.572,6.123C29.39,43.2,22.165,41.112,15.819,40.607c-2.076-4.559-2.655-10.176-1.692-16.726Zm8.51,31.716c-8.4-.452-14.429-4.578-17.939-12.264,5.086-.859,23.428-2.9,29.476,10.741A34.187,34.187,0,0,1,22.638,55.6Zm26.043,0a34.254,34.254,0,0,1-11.537-1.526c6.047-13.64,24.388-11.6,29.482-10.738C63.109,51.015,57.081,55.141,48.681,55.6Z" transform="translate(0 0)" fill="rgba(117,118,112,0.97)"/><rect width="2" height="2" transform="translate(34.659 19.158)" fill="rgba(117,118,112,0.97)"/><rect width="2" height="2" transform="translate(34.659 23.634)" fill="rgba(117,118,112,0.97)"/><rect width="2" height="2" transform="translate(34.659 28.11)" fill="rgba(117,118,112,0.97)"/><path d="M14,26.292a15.238,15.238,0,0,0,2.168,7.555l1.664-1.11A13.4,13.4,0,0,1,16,26.291Z" transform="translate(1.563 2.11)" fill="rgba(117,118,112,0.97)"/><path d="M50,26.292H48a13.31,13.31,0,0,1-1.832,6.445l1.664,1.11A15.238,15.238,0,0,0,50,26.292Z" transform="translate(5.755 2.11)" fill="rgba(117,118,112,0.97)"/></g></svg>