<svg xmlns="http://www.w3.org/2000/svg" width="60" height="41.716" viewBox="0 0 60 41.716">
  <g id="lotus-blume" transform="translate(-2 -11.012)" style="isolation: isolate">
    <path id="Pfad_2" data-name="Pfad 2" d="M61.228,38.108a42.354,42.354,0,0,0-9.33-.821c1.8-4.52,2.171-9.969,1.086-16.244a.992.992,0,0,0-.438-.661,1.007,1.007,0,0,0-.786-.133,35.455,35.455,0,0,0-9.549,4.267,31,31,0,0,0-9.52-13.3,1.006,1.006,0,0,0-1.324.089c-4.435,4.476-7.4,9.075-8.852,13.693A35.562,35.562,0,0,0,12.24,20.247a1.006,1.006,0,0,0-.786.133.992.992,0,0,0-.439.661C9.93,27.316,10.3,32.764,12.1,37.285a42.354,42.354,0,0,0-9.33.821.992.992,0,0,0-.7,1.334c4.346,10.8,12.817,13.285,19.7,13.285A33.188,33.188,0,0,0,32,51.042a33.18,33.18,0,0,0,10.23,1.687c6.882,0,15.354-2.489,19.7-13.285a.994.994,0,0,0-.7-1.336Zm-11.547-.713a26.494,26.494,0,0,0-10.494,2.878.984.984,0,0,0-.462.258h0A17.2,17.2,0,0,0,33.536,45.1a23.51,23.51,0,0,0-.509-5.457c1.2-5.038,4.285-9.327,9.2-12.758a34.879,34.879,0,0,1,8.967-4.4C52.048,28.321,51.532,33.326,49.681,37.394ZM32.148,13.35c1.761,1.547,6.441,6.119,8.345,12.351A24.03,24.03,0,0,0,32,36.3a23.671,23.671,0,0,0-7.774-10.061C25.435,21.936,28.086,17.606,32.148,13.35Zm-19.34,9.129a34.538,34.538,0,0,1,9.672,4.912h0A21.259,21.259,0,0,1,30.972,39.64a23.46,23.46,0,0,0-.51,5.457c-4.051-5.4-10.49-7.257-16.146-7.708-1.85-4.063-2.366-9.069-1.508-14.908Zm7.585,28.267c-7.487-.4-12.86-4.08-15.989-10.931,4.533-.766,20.881-2.588,26.272,9.573a30.47,30.47,0,0,1-10.283,1.36Zm23.212,0a30.53,30.53,0,0,1-10.283-1.36c5.39-12.157,21.737-10.335,26.277-9.57-3.134,6.851-8.507,10.528-15.994,10.934Z" fill="#595a55"/>
    <rect id="Rechteck_2" data-name="Rechteck 2" width="2" height="2" transform="translate(30.999 18.233)" fill="#595a55"/>
    <rect id="Rechteck_3" data-name="Rechteck 3" width="2" height="2" transform="translate(30.999 22.2)" fill="#595a55"/>
    <rect id="Rechteck_4" data-name="Rechteck 4" width="2" height="2" transform="translate(30.999 26.168)" fill="#595a55"/>
    <path id="Pfad_3" data-name="Pfad 3" d="M14,26.292a15.238,15.238,0,0,0,2.168,7.555l1.664-1.11A13.4,13.4,0,0,1,16,26.291Z" transform="translate(0 -0.144)" fill="#595a55"/>
    <path id="Pfad_4" data-name="Pfad 4" d="M50,26.292H48a13.31,13.31,0,0,1-1.832,6.445l1.664,1.11A15.238,15.238,0,0,0,50,26.292Z" transform="translate(-0.001 -0.144)" fill="#595a55"/>
  </g>
</svg>
