<svg xmlns="http://www.w3.org/2000/svg" width="34.23" height="23.985" viewBox="0 0 34.23 23.985">
  <defs>
    <style>
      .cls-1 {
        isolation: isolate;
      }

      .cls-2 {
        fill: rgba(117,118,112,0.97);
      }
    </style>
  </defs>
  <g id="lotus-blume" class="cls-1" transform="translate(-2 -11.012)">
    <path id="Pfad_2" data-name="Pfad 2" class="cls-2" d="M35.79,26.591a23.982,23.982,0,0,0-5.323-.472,17.323,17.323,0,0,0,.62-9.34.57.57,0,0,0-.7-.456,20.151,20.151,0,0,0-5.448,2.453,17.821,17.821,0,0,0-5.431-7.645.57.57,0,0,0-.755.051,19.938,19.938,0,0,0-5.05,7.873,20.216,20.216,0,0,0-5.862-2.734.57.57,0,0,0-.7.456,17.346,17.346,0,0,0,.62,9.34,23.982,23.982,0,0,0-5.323.472.571.571,0,0,0-.4.767,11.33,11.33,0,0,0,11.239,7.638,18.8,18.8,0,0,0,5.836-.968,18.8,18.8,0,0,0,5.836.97A11.332,11.332,0,0,0,36.19,27.359a.572.572,0,0,0-.4-.768Zm-6.588-.41a15.025,15.025,0,0,0-5.987,1.654.56.56,0,0,0-.264.148h0a9.837,9.837,0,0,0-2.96,2.629,13.619,13.619,0,0,0-.29-3.138A12.4,12.4,0,0,1,24.95,20.14a19.836,19.836,0,0,1,5.116-2.531A15.339,15.339,0,0,1,29.2,26.181Zm-10-13.824a16.621,16.621,0,0,1,4.761,7.1,13.8,13.8,0,0,0-4.846,6.1,13.6,13.6,0,0,0-4.435-5.785A18.057,18.057,0,0,1,19.2,12.356ZM8.166,17.6a19.647,19.647,0,0,1,5.518,2.824h0a12.223,12.223,0,0,1,4.845,7.043,13.59,13.59,0,0,0-.291,3.138c-2.311-3.1-5.985-4.173-9.211-4.432a15.316,15.316,0,0,1-.86-8.571Zm4.327,16.252a10,10,0,0,1-9.122-6.285c2.586-.44,11.913-1.488,14.988,5.5a17.258,17.258,0,0,1-5.866.782Zm13.242,0a17.292,17.292,0,0,1-5.866-.782c3.075-6.99,12.4-5.942,14.991-5.5a10.012,10.012,0,0,1-9.125,6.286Z" transform="translate(0)"/>
    <rect id="Rechteck_2" data-name="Rechteck 2" class="cls-2" width="2" height="2" transform="translate(18.115 15.009)"/>
    <rect id="Rechteck_3" data-name="Rechteck 3" class="cls-2" width="2" height="2" transform="translate(18.115 17.205)"/>
    <rect id="Rechteck_4" data-name="Rechteck 4" class="cls-2" width="2" height="2" transform="translate(18.115 19.402)"/>
    <path id="Pfad_3" data-name="Pfad 3" class="cls-2" d="M14,26.292a15.238,15.238,0,0,0,2.168,7.555l1.664-1.11A13.4,13.4,0,0,1,16,26.291Z" transform="translate(-5.506 -8)"/>
    <path id="Pfad_4" data-name="Pfad 4" class="cls-2" d="M50,26.292H48a13.31,13.31,0,0,1-1.832,6.445l1.664,1.11A15.238,15.238,0,0,0,50,26.292Z" transform="translate(-20.264 -8)"/>
  </g>
</svg>
