<svg xmlns="http://www.w3.org/2000/svg" width="73.31" height="50.967" viewBox="0 0 73.31 50.967"><g transform="translate(-322.842 -338.004)"><path d="M767.58,39.442c-.5,0-.983-.011-1.433-.032-8.926-.477-15.346-4.832-19.08-12.945a51.087,51.087,0,0,1,8.168-.674,33.814,33.814,0,0,1,12.91,2.26A18.572,18.572,0,0,1,778.418,37.8,36.569,36.569,0,0,1,767.58,39.442Zm24.844,0A36.656,36.656,0,0,1,781.576,37.8a18.565,18.565,0,0,1,10.274-9.747,33.825,33.825,0,0,1,12.911-2.259,51.142,51.142,0,0,1,8.173.673c-3.739,8.113-10.161,12.468-19.086,12.945C793.389,39.429,792.91,39.438,792.424,39.438Zm-10.592-6.711v0a27.7,27.7,0,0,0-.608-6.46c1.433-5.971,5.127-11.055,10.978-15.109a41.75,41.75,0,0,1,10.7-5.214c1.015,6.889.408,12.83-1.806,17.657a31.824,31.824,0,0,0-12.523,3.407,1.174,1.174,0,0,0-.551.306,20.374,20.374,0,0,0-6.191,5.414Zm-3.668-.007v0a21.312,21.312,0,0,0-8.914-6.759A33.56,33.56,0,0,0,758.9,23.592c-2.214-4.826-2.819-10.767-1.8-17.658a41.266,41.266,0,0,1,11.542,5.816,25.176,25.176,0,0,1,10.134,14.506,27.612,27.612,0,0,0-.609,6.461ZM780,22.305v0A28.061,28.061,0,0,0,770.72,10.39c1.447-5.113,4.629-10.249,9.455-15.267A38.07,38.07,0,0,1,785.091.356a29.724,29.724,0,0,1,5.043,9.394A28.448,28.448,0,0,0,780,22.3Z" transform="translate(-423.5 346.5)" fill="#c6c7bf"/><path d="M74.367,44.116a51.752,51.752,0,0,0-11.4-1c2.2-5.522,2.653-12.18,1.327-19.847a1.212,1.212,0,0,0-.536-.808A1.23,1.23,0,0,0,62.8,22.3,43.321,43.321,0,0,0,51.13,27.51,37.877,37.877,0,0,0,39.5,11.265a1.229,1.229,0,0,0-1.618.109C32.462,16.843,28.84,22.462,27.065,28.1a43.452,43.452,0,0,0-12.554-5.809,1.23,1.23,0,0,0-.961.162,1.212,1.212,0,0,0-.536.808c-1.326,7.667-.867,14.323,1.327,19.847a51.752,51.752,0,0,0-11.4,1,1.211,1.211,0,0,0-.855,1.629c5.31,13.192,15.66,16.232,24.07,16.232a40.552,40.552,0,0,0,12.5-2.056,40.543,40.543,0,0,0,12.5,2.061c8.408,0,18.76-3.04,24.07-16.232a1.214,1.214,0,0,0-.856-1.632Zm-14.108-.872A32.373,32.373,0,0,0,47.437,46.76a1.2,1.2,0,0,0-.564.315h0a21.014,21.014,0,0,0-6.34,5.588A28.722,28.722,0,0,0,39.91,46c1.466-6.155,5.235-11.4,11.241-15.588a42.617,42.617,0,0,1,10.956-5.379C63.15,32.159,62.52,38.274,60.258,43.245ZM38.836,13.868c2.152,1.89,7.87,7.476,10.2,15.09A29.36,29.36,0,0,0,38.654,41.911a28.921,28.921,0,0,0-9.5-12.293C30.633,24.358,33.872,19.068,38.836,13.868ZM15.207,25.021a42.2,42.2,0,0,1,11.817,6h0A25.973,25.973,0,0,1,37.4,45.988a28.662,28.662,0,0,0-.623,6.668c-4.95-6.595-12.817-8.867-19.727-9.417-2.26-4.964-2.891-11.08-1.842-18.214Zm9.267,34.536C15.326,59.065,8.762,54.572,4.938,46.2c5.538-.936,25.513-3.162,32.1,11.7a37.232,37.232,0,0,1-12.564,1.662Zm28.361,0A37.3,37.3,0,0,1,40.271,57.9C46.856,43.042,66.829,45.268,72.376,46.2c-3.829,8.37-10.394,12.863-19.542,13.358Z" transform="translate(320.842 326.991)" fill="#797a74"/><path d="M0,0H2V2H0Z" transform="translate(358.497 347.39)" fill="#797a74"/><path d="M0,0H2V2H0Z" transform="translate(358.497 352.328)" fill="#797a74"/><path d="M0,0H2V2H0Z" transform="translate(358.497 357.266)" fill="#797a74"/><path d="M14,26.292a15.238,15.238,0,0,0,2.168,7.555l1.664-1.11A13.4,13.4,0,0,1,16,26.291Z" transform="translate(323.659 331.534)" fill="#797a74"/><path d="M50,26.292H48a13.31,13.31,0,0,1-1.832,6.445l1.664,1.11A15.238,15.238,0,0,0,50,26.292Z" transform="translate(331.336 331.534)" fill="#797a74"/></g></svg>