<svg xmlns="http://www.w3.org/2000/svg" width="93.047" height="65.196" viewBox="0 0 93.047 65.196">
  <g id="lotus-blume" transform="translate(-2 -11.012)" style="isolation: isolate">
    <path id="Pfad_2" data-name="Pfad 2" d="M93.85,53.358a65.189,65.189,0,0,0-14.469-1.282c2.791-7.064,3.367-15.58,1.684-25.387a1.551,1.551,0,0,0-1.9-1.241,54.774,54.774,0,0,0-14.808,6.668,48.442,48.442,0,0,0-14.763-20.78,1.551,1.551,0,0,0-2.053.14c-6.878,7-11.476,14.183-13.727,21.4A54.953,54.953,0,0,0,17.88,25.445a1.551,1.551,0,0,0-1.9,1.241c-1.683,9.807-1.1,18.322,1.684,25.387A65.189,65.189,0,0,0,3.2,53.355,1.552,1.552,0,0,0,2.11,55.439C8.85,72.315,21.986,76.2,32.66,76.2a51.105,51.105,0,0,0,15.863-2.63,51.094,51.094,0,0,0,15.864,2.636c10.672,0,23.81-3.889,30.55-20.763a1.555,1.555,0,0,0-1.087-2.087ZM75.943,52.243a40.842,40.842,0,0,0-16.274,4.5,1.523,1.523,0,0,0-.716.4h0a26.738,26.738,0,0,0-8.047,7.147,37.02,37.02,0,0,0-.789-8.529c1.861-7.873,6.645-14.577,14.267-19.94a53.918,53.918,0,0,1,13.906-6.881C79.614,38.063,78.814,45.885,75.943,52.243ZM48.754,14.665c2.731,2.418,9.988,9.564,12.941,19.3a37.505,37.505,0,0,0-13.172,16.57A36.959,36.959,0,0,0,36.467,34.813C38.342,28.084,42.453,21.317,48.754,14.665ZM18.762,28.932a53.406,53.406,0,0,1,15,7.676h0A33.226,33.226,0,0,1,46.93,55.753a36.942,36.942,0,0,0-.791,8.529C39.857,55.846,29.872,52.94,21.1,52.236c-2.869-6.35-3.669-14.174-2.339-23.3ZM30.525,73.11c-11.611-.63-19.943-6.377-24.8-17.083,7.03-1.2,32.381-4.044,40.741,14.962a46.912,46.912,0,0,1-15.946,2.126Zm36,0a47,47,0,0,1-15.946-2.126c8.359-19,33.709-16.153,40.749-14.957-4.86,10.706-13.192,16.454-24.8,17.088Z" fill="rgba(117,118,112,0.97)"/>
    <rect id="Rechteck_2" data-name="Rechteck 2" width="2" height="2" transform="translate(47.523 22.502)" fill="rgba(117,118,112,0.97)"/>
    <rect id="Rechteck_3" data-name="Rechteck 3" width="2" height="2" transform="translate(47.523 28.815)" fill="rgba(117,118,112,0.97)"/>
    <rect id="Rechteck_4" data-name="Rechteck 4" width="2" height="2" transform="translate(47.523 35.128)" fill="rgba(117,118,112,0.97)"/>
    <path id="Pfad_3" data-name="Pfad 3" d="M14,26.292a15.238,15.238,0,0,0,2.168,7.555l1.664-1.11A13.4,13.4,0,0,1,16,26.291Z" transform="translate(7.06 10.258)" fill="rgba(117,118,112,0.97)"/>
    <path id="Pfad_4" data-name="Pfad 4" d="M50,26.292H48a13.31,13.31,0,0,1-1.832,6.445l1.664,1.11A15.238,15.238,0,0,0,50,26.292Z" transform="translate(25.985 10.259)" fill="rgba(117,118,112,0.97)"/>
  </g>
</svg>
