<svg xmlns="http://www.w3.org/2000/svg" width="92.925" height="64.604" viewBox="0 0 92.925 64.604"><g transform="translate(-322.842 -338.004)"><path d="M773.689,53.079c-.651,0-1.276-.014-1.859-.041-11.584-.624-19.916-6.319-24.763-16.928a65.812,65.812,0,0,1,10.6-.881,43.589,43.589,0,0,1,16.754,2.956,24.183,24.183,0,0,1,13.333,12.751A47.129,47.129,0,0,1,773.689,53.079Zm32.242-.005a47.24,47.24,0,0,1-14.078-2.143,24.175,24.175,0,0,1,13.333-12.747,43.6,43.6,0,0,1,16.755-2.955,65.884,65.884,0,0,1,10.607.88c-4.853,10.609-13.187,16.3-24.77,16.928C807.184,53.062,806.563,53.074,805.931,53.074ZM792.185,44.3v0a36.485,36.485,0,0,0-.789-8.448c1.86-7.809,6.654-14.456,14.248-19.759A54.014,54.014,0,0,1,819.532,9.27c1.318,9.009.529,16.778-2.344,23.09a41.06,41.06,0,0,0-16.252,4.456,1.519,1.519,0,0,0-.716.4,26.5,26.5,0,0,0-8.034,7.08Zm-4.761-.009,0,0a27.683,27.683,0,0,0-11.569-8.839,43.278,43.278,0,0,0-13.435-3.1c-2.874-6.312-3.659-14.08-2.336-23.091a53.4,53.4,0,0,1,14.98,7.606,32.923,32.923,0,0,1,13.152,18.97,36.379,36.379,0,0,0-.79,8.449Zm2.38-13.62v0a36.658,36.658,0,0,0-12.039-15.579c1.878-6.686,6.007-13.4,12.271-19.965a49.625,49.625,0,0,1,6.38,6.844,38.967,38.967,0,0,1,6.545,12.284A37.149,37.149,0,0,0,789.8,30.667Z" transform="translate(-423.5 346.5)" fill="#c6c7bf"/><path d="M93.73,52.974A65.6,65.6,0,0,0,79.28,51.7c2.788-7,3.362-15.439,1.682-25.157a1.536,1.536,0,0,0-.679-1.024,1.559,1.559,0,0,0-1.218-.205,54.912,54.912,0,0,0-14.789,6.608A48.011,48.011,0,0,0,49.532,11.333a1.558,1.558,0,0,0-2.051.138C40.613,18.4,36.021,25.526,33.772,32.677a55.078,55.078,0,0,0-15.913-7.364,1.559,1.559,0,0,0-1.218.205,1.536,1.536,0,0,0-.679,1.024c-1.68,9.718-1.1,18.156,1.682,25.157a65.6,65.6,0,0,0-14.45,1.271A1.536,1.536,0,0,0,2.11,55.036C8.841,71.758,21.96,75.611,32.62,75.611A51.4,51.4,0,0,0,48.462,73a51.391,51.391,0,0,0,15.843,2.612c10.658,0,23.779-3.854,30.51-20.575a1.539,1.539,0,0,0-1.086-2.068Zm-17.883-1.1a41.035,41.035,0,0,0-16.252,4.456,1.524,1.524,0,0,0-.716.4h0a26.637,26.637,0,0,0-8.036,7.083,36.407,36.407,0,0,0-.788-8.452C51.912,47.554,56.69,40.911,64.3,35.6A54.02,54.02,0,0,1,78.19,28.779C79.512,37.818,78.713,45.569,75.847,51.869ZM48.693,14.632c2.727,2.4,9.975,9.477,12.924,19.127A37.216,37.216,0,0,0,48.462,50.179,36.659,36.659,0,0,0,36.422,34.6C38.294,27.929,42.4,21.223,48.693,14.632ZM18.74,28.77A53.492,53.492,0,0,1,33.72,36.376h0a32.922,32.922,0,0,1,13.152,18.97,36.331,36.331,0,0,0-.79,8.452c-6.274-8.36-16.246-11.239-25.006-11.937-2.865-6.293-3.664-14.045-2.335-23.087ZM30.487,72.546c-11.6-.624-19.917-6.319-24.763-16.928,7.02-1.186,32.339-4.008,40.688,14.826a47.193,47.193,0,0,1-15.926,2.107Zm35.949,0A47.286,47.286,0,0,1,50.511,70.44c8.348-18.827,33.665-16.006,40.7-14.821-4.854,10.609-13.175,16.3-24.77,16.933Z" transform="translate(320.842 326.991)" fill="#797a74"/><path d="M0,0H2V2H0Z" transform="translate(368.305 350.004)" fill="#797a74"/><path d="M0,0H2V2H0Z" transform="translate(368.305 356.317)" fill="#797a74"/><path d="M0,0H2V2H0Z" transform="translate(368.305 362.63)" fill="#797a74"/><path d="M14,26.292a15.238,15.238,0,0,0,2.168,7.555l1.664-1.11A13.4,13.4,0,0,1,16,26.291Z" transform="translate(327.842 337.761)" fill="#797a74"/><path d="M50,26.292H48a13.31,13.31,0,0,1-1.832,6.445l1.664,1.11A15.238,15.238,0,0,0,50,26.292Z" transform="translate(346.768 337.761)" fill="#797a74"/></g></svg>