<svg xmlns="http://www.w3.org/2000/svg" width="73.31" height="50.97" viewBox="0 0 73.31 50.97"><g transform="translate(-2 -11.012)" style="isolation:isolate"><path d="M74.367,44.118a51.749,51.749,0,0,0-11.4-1c2.2-5.522,2.653-12.181,1.327-19.848a1.212,1.212,0,0,0-.536-.808A1.23,1.23,0,0,0,62.8,22.3,43.32,43.32,0,0,0,51.13,27.511,37.879,37.879,0,0,0,39.5,11.265a1.229,1.229,0,0,0-1.618.109c-5.419,5.469-9.041,11.088-10.815,16.731A43.451,43.451,0,0,0,14.511,22.3a1.23,1.23,0,0,0-.961.162,1.212,1.212,0,0,0-.536.808c-1.326,7.667-.867,14.324,1.327,19.848a51.749,51.749,0,0,0-11.4,1,1.212,1.212,0,0,0-.855,1.629c5.31,13.193,15.66,16.232,24.07,16.232a40.55,40.55,0,0,0,12.5-2.056,40.541,40.541,0,0,0,12.5,2.061c8.409,0,18.76-3.041,24.07-16.232a1.215,1.215,0,0,0-.856-1.632Zm-14.108-.872a32.372,32.372,0,0,0-12.822,3.516,1.2,1.2,0,0,0-.564.315h0a21.014,21.014,0,0,0-6.34,5.588A28.725,28.725,0,0,0,39.91,46c1.466-6.155,5.235-11.4,11.241-15.589a42.616,42.616,0,0,1,10.956-5.379C63.15,32.161,62.52,38.276,60.258,43.246ZM38.836,13.868c2.152,1.89,7.87,7.477,10.2,15.09A29.361,29.361,0,0,0,38.654,41.913a28.922,28.922,0,0,0-9.5-12.293C30.633,24.359,33.872,19.068,38.836,13.868ZM15.207,25.022a42.2,42.2,0,0,1,11.817,6h0A25.974,25.974,0,0,1,37.4,45.99a28.665,28.665,0,0,0-.623,6.668c-4.95-6.6-12.817-8.867-19.727-9.418-2.26-4.965-2.891-11.081-1.842-18.215ZM24.474,59.56C15.326,59.068,8.762,54.575,4.938,46.2c5.538-.936,25.513-3.162,32.1,11.7a37.23,37.23,0,0,1-12.564,1.662Zm28.361,0A37.3,37.3,0,0,1,40.271,57.9C46.856,43.044,66.829,45.27,72.376,46.2c-3.829,8.37-10.394,12.863-19.542,13.359Z" transform="translate(0 0)" fill="rgba(117,118,112,0.97)"/><rect width="2" height="2" transform="translate(37.654 19.915)" fill="rgba(117,118,112,0.97)"/><rect width="2" height="2" transform="translate(37.654 24.807)" fill="rgba(117,118,112,0.97)"/><rect width="2" height="2" transform="translate(37.654 29.699)" fill="rgba(117,118,112,0.97)"/><path d="M14,26.292a15.238,15.238,0,0,0,2.168,7.555l1.664-1.11A13.4,13.4,0,0,1,16,26.291Z" transform="translate(2.843 3.956)" fill="rgba(117,118,112,0.97)"/><path d="M50,26.292H48a13.31,13.31,0,0,1-1.832,6.445l1.664,1.11A15.238,15.238,0,0,0,50,26.292Z" transform="translate(10.465 3.956)" fill="rgba(117,118,112,0.97)"/></g></svg>